<svg xmlns="http://www.w3.org/2000/svg" width="24" height="24" viewBox="0 0 24 24">
  <path fill="#FFFFFF" d="M11.694102,21.9954106 C11.7956944,21.9984629 11.8976677,22 12,22 C17.5228474,22 22,17.5228474 22,12 C22,6.4771525 17.5228474,2 12,2 C6.4771525,2 2,6.4771525 2,12 C2,14.7613959 3.11926559,17.2613734 4.92887751,19.0710131 L2,21.9954106 L11.694102,21.9954106 Z M11.9959416,13.6660957 L9.52029221,19.1395721 L7.71428571,19.1395721 L10.4334416,13.2865481 C9.79761587,12.9669274 9.28355174,12.4974916 8.89123377,11.8782266 C8.49891579,11.2589616 8.30275974,10.4166406 8.30275974,9.3512384 C8.30275974,8.60545686 8.41436577,7.94957847 8.63758117,7.38358356 C8.86079657,6.81758864 9.16517664,6.34815284 9.55073051,5.97526207 C9.9362844,5.6023713 10.3860905,5.32270741 10.9001623,5.13626203 C11.4142342,4.94981664 11.9553543,4.85659536 12.523539,4.85659536 L14.8571429,4.85659536 L14.8571429,19.1395721 L13.2946429,19.1395721 L13.2946429,13.6660957 L11.9959416,13.6660957 Z M13.2946429,6.15504779 L12.4626623,6.15504779 C12.1515136,6.15504779 11.8471335,6.21164643 11.549513,6.32484541 C11.2518925,6.4380444 10.9880964,6.61782833 10.7581169,6.86420259 C10.5281374,7.11057684 10.3421273,7.43685137 10.2000812,7.84303596 C10.058035,8.24922054 9.98701299,8.75194966 9.98701299,9.3512384 C9.98701299,9.92389207 10.051271,10.4033159 10.179789,10.7895242 C10.3083069,11.1757325 10.484171,11.4886897 10.7073864,11.7284052 C10.9306018,11.9681207 11.1943978,12.1379166 11.4987825,12.237798 C11.8031671,12.3376795 12.1244572,12.3876195 12.4626623,12.3876195 L13.2946429,12.3876195 L13.2946429,6.15504779 Z"/>
</svg>
