<svg xmlns="http://www.w3.org/2000/svg" width="24" height="24" viewBox="0 0 24 24">
  <path fill="#299ED7" fill-rule="evenodd" d="M6.99548668,13.2487528 L8.48045576,17.7311218 C8.67645168,18.2243925 8.58045368,18.4217008 9.14644189,18.4217008 C9.58343279,18.4217008 9.77642877,18.2390079 10.0204237,18.0216035 L12.12038,16.1490018 L16.4852891,19.1086259 C17.2882723,19.5151175 17.8682603,19.3050207 18.0682561,18.4235277 L20.9341964,6.03695266 C21.2281903,4.95906487 20.4862058,4.46853457 19.7172218,4.78916052 L2.88757223,10.7412935 C1.73759617,11.163314 1.74559601,11.7515849 2.6775766,12.0128357 L6.99748664,13.2496663 L6.99548668,13.2487528 Z M7.99946578,12.6677896 L16.9952784,7.46287034 C17.4672686,7.2007061 17.9002596,7.34137959 17.545267,7.63094776 L9.44243573,14.3357753 L9.27743916,16.6057339 L7.99946578,12.668703 L7.99946578,12.6677896 Z"/>
</svg>
