<svg xmlns="http://www.w3.org/2000/svg" width="24" height="24" xmlns:xlink="http://www.w3.org/1999/xlink"><defs><path id="a" d="M8.676 8.206c.199.025.649.117.887.437.309.412.298 1.336.298 1.336s.177 2.545-.414 2.861c-.404.218-.96-.225-2.156-2.251C6.68 9.552 6.22 8.406 6.22 8.406s-.09-.214-.248-.33a1.247 1.247 0 0 0-.463-.18l-2.856.017s-.43.012-.587.195c-.14.162-.011.5-.011.5s2.236 5.137 4.77 7.727c2.324 2.374 4.961 2.218 4.961 2.218h1.195s.362-.039.546-.235c.17-.178.164-.515.164-.515s-.022-1.573.723-1.805c.733-.23 1.675 1.52 2.675 2.194.755.509 1.328.397 1.328.397l2.672-.036s1.397-.085.733-1.163c-.054-.088-.385-.798-1.985-2.255-1.675-1.527-1.45-1.28.566-3.919 1.23-1.607 1.72-2.589 1.567-3.008-.146-.402-1.05-.295-1.05-.295l-3.007.019s-.223-.03-.388.066c-.161.096-.267.317-.267.317s-.475 1.244-1.11 2.302c-1.34 2.231-1.874 2.35-2.093 2.212-.51-.324-.382-1.3-.382-1.991 0-2.164.334-3.066-.651-3.298-.327-.078-.567-.128-1.403-.138l-.424-.002c-.887 0-1.627.039-2.072.252-.342.165-.607.532-.446.554z"/></defs><use fill="#4E7097" xlink:href="#a" fill-rule="evenodd"/></svg>