<svg xmlns="http://www.w3.org/2000/svg" width="24" height="24" viewBox="0 0 24 24">
  <path fill="#FEFEFE" fill-rule="evenodd" d="M11.8718788,1.99969697 C6.42036364,1.99969697 1.99975758,6.42030303 1.99975758,11.8730303 C1.99975758,16.2342424 4.82824242,19.9348485 8.75187879,21.240303 C9.24581818,21.3306061 9.42581818,21.0263636 9.42581818,20.7645455 C9.42581818,20.53 9.41733333,19.9093939 9.41248485,19.0851515 C6.66642424,19.6821212 6.0870303,17.7621212 6.0870303,17.7621212 C5.63793939,16.6215152 4.99066667,16.3178788 4.99066667,16.3178788 C4.09430303,15.7051515 5.05854545,15.7178788 5.05854545,15.7178788 C6.04945455,15.7875758 6.57066667,16.7348485 6.57066667,16.7348485 C7.45127273,18.2439394 8.8809697,17.8081818 9.444,17.5554545 C9.53369697,16.9172727 9.78824242,16.4821212 10.0706667,16.2354545 C7.87854545,15.9863636 5.57369697,15.139697 5.57369697,11.3560606 C5.57369697,10.2784848 5.95854545,9.39727273 6.59006061,8.7069697 C6.48824242,8.45727273 6.14945455,7.45363636 6.68642424,6.09484848 C6.68642424,6.09484848 7.51551515,5.82878788 9.40157576,7.10636364 C10.1888485,6.88757576 11.033697,6.77787879 11.8730909,6.77424242 C12.7112727,6.77787879 13.5561212,6.88757576 14.3446061,7.10636364 C16.2294545,5.82878788 17.0567273,6.09484848 17.0567273,6.09484848 C17.5955152,7.45363636 17.2567273,8.45727273 17.1549091,8.7069697 C17.7876364,9.39727273 18.1700606,10.2784848 18.1700606,11.3560606 C18.1700606,15.1487879 15.8615758,15.9833333 13.6621818,16.2281818 C14.0167273,16.5324242 14.3324848,17.1354545 14.3324848,18.0560606 C14.3324848,19.3760606 14.3203636,20.4409091 14.3203636,20.7645455 C14.3203636,21.0281818 14.4979394,21.3354545 14.9991515,21.2390909 C18.9185455,19.9312121 21.7452121,16.2330303 21.7452121,11.8730303 C21.7452121,6.42030303 17.3246061,1.99969697 11.8718788,1.99969697"/>
</svg>
